<?xml version="1.0" encoding="UTF-8"?>
<svg width="48px" height="48px" viewBox="0 0 48 48" version="1.1" xmlns="http://www.w3.org/2000/svg" xmlns:xlink="http://www.w3.org/1999/xlink">
    <title>at_bacustomer</title>
    <g id="at_bacustomer" stroke="none" stroke-width="1" fill="none" fill-rule="evenodd">
        <g id="Group-Copy-2">
            <path d="M0,0 L48,0 L48,48 L0,48 L0,0 Z" id="Rectangle"></path>
            <g id="cards-hand-copy-6" transform="translate(0.765259, 10.109985)" stroke="#002D72" stroke-dasharray="0,0" stroke-linejoin="round" stroke-width="1.5">
                <g id="Outline_Icons">
                    <path d="M12.0000001,8.03015178 L12.0000001,16.0301518 L-3.99999988,16.0301518 L-3.99999988,8.03015178 L12.0000001,8.03015178 Z" id="Path" transform="translate(4.000000, 12.030152) scale(-1, -1) rotate(-90.000000) translate(-4.000000, -12.030152) "></path>
                    <path d="M28.0421729,21.0981584 C19.0361727,2.72215846 18.0981727,10.4741574 29.0981729,-13.0678429" id="Path" stroke-linecap="round" transform="translate(25.083015, 4.015158) scale(-1, -1) rotate(-90.000000) translate(-25.083015, -4.015158) "></path>
                    <path d="M26.3758776,27.0302735 L34.9998777,27.0302735 C36.1044472,27.0302735 36.9998777,26.134844 36.9998777,25.0302735 L36.9998777,1.03027349 C36.9998777,-0.0742959733 36.1044472,-0.969726508 34.9998777,-0.969726508 L18.9998777,-0.969726508 C17.8958777,-0.969726508 16.9998777,-0.071726417 16.9998777,1.03027349 L16.9998777,25.0302735 C16.9998777,25.8142745 17.4218777,26.8602725 18.2638777,26.3602725 L22.1878775,16.5922738 C23.3318775,13.6182738 27.9078774,15.6802732 26.7638774,18.6542731 C26.0910342,20.463165 25.6253958,22.3424947 25.3758779,24.2562733 C25.9498779,25.5482733 26.9998777,28.3262727 26.9998777,33.0302735 L26.9998777,37.0302735" id="Path" stroke-linecap="round" transform="translate(26.999878, 18.030274) scale(-1, -1) rotate(-90.000000) translate(-26.999878, -18.030274) "></path>
                </g>
            </g>
        </g>
    </g>
</svg>