<?xml version="1.0" encoding="UTF-8"?>
<svg width="48px" height="48px" viewBox="0 0 48 48" version="1.1" xmlns="http://www.w3.org/2000/svg" xmlns:xlink="http://www.w3.org/1999/xlink">
    <title>at_assortment</title>
    <g id="at_assortment" stroke="none" stroke-width="1" fill="none" fill-rule="evenodd" stroke-linecap="round" stroke-linejoin="round">
        <g id="Group-655" transform="translate(2.000000, 4.000000)" stroke="#002D72" stroke-width="1.5">
            <path d="M12.4347826,37.0999082 C12.4347826,38.7007589 11.1492174,40 9.56521739,40 C7.98121739,40 6.69565217,38.7007589 6.69565217,37.0999082 C6.69565217,35.4990575 7.98121739,34.1998163 9.56521739,34.1998163 C11.1492174,34.1998163 12.4347826,35.4990575 12.4347826,37.0999082 L12.4347826,37.0999082 Z" id="Stroke-6655"></path>
            <path d="M33.4782609,37.0999082 C33.4782609,38.7007589 32.1926957,40 30.6086957,40 C29.0246957,40 27.7391304,38.7007589 27.7391304,37.0999082 C27.7391304,35.4990575 29.0246957,34.1998163 30.6086957,34.1998163 C32.1926957,34.1998163 33.4782609,35.4990575 33.4782609,37.0999082 L33.4782609,37.0999082 Z" id="Stroke-6656"></path>
            <polyline id="Stroke-6657" points="44 1.33210885 38.2608696 1.33210885 30.6086957 34.1998163 9.56521739 34.1998163"></polyline>
            <polyline id="Stroke-6658" points="31.5652174 30.3330272 6.69565217 30.3330272 0.956521739 12.9324762 35.5118261 12.9324762"></polyline>
            <polyline id="Stroke-6659" points="20.0869565 12.9324762 27.7391304 5.19889797 35.5405217 12.9324762"></polyline>
            <polyline id="Stroke-6660" points="10.5217391 12.9324762 4.7826087 0 0 2.29880613 4.7826087 12.9324762"></polyline>
            <polyline id="Stroke-6661" points="17.2173913 12.9324762 17.2173913 7.13229252 25.826087 7.13229252"></polyline>
        </g>
    </g>
</svg>